# xmcd CD database file
#
# Track frame offsets:
#	150
#	19170
#	25446
#	38311
#	58477
#	66530
#	83057
#	111781
#	122302
#	131614
#	148792
#	160589
#	169096
#	188822
#	203342
#	203792
#	212396
#
# Disc length: 3057 seconds
#
# Revision: 0
# Processed by: cddbd v1.4PL0 Copyright (c) Steve Scherf et al.
# Submitted via: CDex 1.50Beta7
#
DISCID=e60bef11
DTITLE=Lolita - Teaterske glasbe
DYEAR=1900
DGENRE=Jazz
TTITLE0=Sluga dveh gospodov 1
TTITLE1=sluga 2
TTITLE2=sluga 3
TTITLE3=sluga 4
TTITLE4=sluga 5
TTITLE5=Cakajoc na vejco
TTITLE6=Trans Europe Express
TTITLE7=Hotel Intercontinental 1
TTITLE8=hotel 2
TTITLE9=hotel 3
TTITLE10=hotel 4
TTITLE11=hotel 5
TTITLE12=hotel 6
TTITLE13=hotel 7
TTITLE14=hotel 8
TTITLE15=hotel 9
TTITLE16=hotel A
EXTD=
EXTT0=
EXTT1=
EXTT2=
EXTT3=
EXTT4=
EXTT5=
EXTT6=
EXTT7=
EXTT8=
EXTT9=
EXTT10=
EXTT11=
EXTT12=
EXTT13=
EXTT14=
EXTT15=
EXTT16=
PLAYORDER=
